<mxfile host="app.diagrams.net" modified="2023-10-17T13:34:11.287Z" agent="Mozilla/5.0 (Windows NT 10.0; Win64; x64) AppleWebKit/537.36 (KHTML, like Gecko) Chrome/118.0.0.0 Safari/537.36" etag="f_UjtsUz5RvMHz6rxX-O" version="22.0.4" type="device">
  <diagram name="Page-1" id="e7e014a7-5840-1c2e-5031-d8a46d1fe8dd">
    <mxGraphModel dx="2049" dy="1272" grid="1" gridSize="10" guides="1" tooltips="1" connect="1" arrows="1" fold="1" page="1" pageScale="1" pageWidth="1169" pageHeight="826" background="none" math="0" shadow="0">
      <root>
        <mxCell id="0" />
        <mxCell id="1" parent="0" />
        <mxCell id="SyflD4wRQNZvbjh-Ypq2-5" value="Purchase Order" style="rounded=0;whiteSpace=wrap;html=1;" parent="1" vertex="1">
          <mxGeometry x="350" y="40" width="120" height="60" as="geometry" />
        </mxCell>
        <mxCell id="SyflD4wRQNZvbjh-Ypq2-11" value="Payment hold" style="rounded=1;whiteSpace=wrap;html=1;" parent="1" vertex="1">
          <mxGeometry x="380" y="810" width="120" height="60" as="geometry" />
        </mxCell>
        <mxCell id="SyflD4wRQNZvbjh-Ypq2-14" value="slots Avalibility" style="rounded=1;whiteSpace=wrap;html=1;" parent="1" vertex="1">
          <mxGeometry x="350" y="230" width="120" height="60" as="geometry" />
        </mxCell>
        <mxCell id="SyflD4wRQNZvbjh-Ypq2-16" value="Plexaar Sale Order" style="rounded=1;whiteSpace=wrap;html=1;" parent="1" vertex="1">
          <mxGeometry x="770" y="1709" width="120" height="60" as="geometry" />
        </mxCell>
        <mxCell id="SyflD4wRQNZvbjh-Ypq2-17" value="Payment" style="rounded=1;whiteSpace=wrap;html=1;" parent="1" vertex="1">
          <mxGeometry x="380.0000000000001" y="680" width="120" height="60" as="geometry" />
        </mxCell>
        <mxCell id="SyflD4wRQNZvbjh-Ypq2-20" value="Booking" style="rounded=1;whiteSpace=wrap;html=1;" parent="1" vertex="1">
          <mxGeometry x="380" y="1609" width="120" height="60" as="geometry" />
        </mxCell>
        <mxCell id="SyflD4wRQNZvbjh-Ypq2-22" value="Invoice" style="rounded=1;whiteSpace=wrap;html=1;" parent="1" vertex="1">
          <mxGeometry x="380" y="1800" width="120" height="60" as="geometry" />
        </mxCell>
        <mxCell id="SyflD4wRQNZvbjh-Ypq2-24" value="Plexaar Booking" style="rounded=1;whiteSpace=wrap;html=1;" parent="1" vertex="1">
          <mxGeometry x="970" y="1810" width="120" height="60" as="geometry" />
        </mxCell>
        <mxCell id="SyflD4wRQNZvbjh-Ypq2-25" value="Plexaar Sales Order Action" style="rounded=1;whiteSpace=wrap;html=1;" parent="1" vertex="1">
          <mxGeometry x="970" y="1709" width="120" height="60" as="geometry" />
        </mxCell>
        <mxCell id="SyflD4wRQNZvbjh-Ypq2-27" value="Sales Order Action" style="rounded=1;whiteSpace=wrap;html=1;" parent="1" vertex="1">
          <mxGeometry x="380" y="1517" width="120" height="60" as="geometry" />
        </mxCell>
        <mxCell id="SyflD4wRQNZvbjh-Ypq2-49" value="" style="edgeStyle=elbowEdgeStyle;elbow=vertical;verticalAlign=bottom;endArrow=open;endSize=8;strokeColor=#FF0000;endFill=1;rounded=0;exitX=0.5;exitY=1;exitDx=0;exitDy=0;entryX=0.5;entryY=0;entryDx=0;entryDy=0;" parent="1" source="SyflD4wRQNZvbjh-Ypq2-25" target="SyflD4wRQNZvbjh-Ypq2-24" edge="1">
          <mxGeometry x="264.5" y="168" as="geometry">
            <mxPoint x="680" y="1959" as="targetPoint" />
            <mxPoint x="730" y="1949" as="sourcePoint" />
          </mxGeometry>
        </mxCell>
        <mxCell id="SyflD4wRQNZvbjh-Ypq2-54" value="Update Purchase Order" style="rounded=1;whiteSpace=wrap;html=1;" parent="1" vertex="1">
          <mxGeometry x="350" y="130" width="120" height="60" as="geometry" />
        </mxCell>
        <mxCell id="SyflD4wRQNZvbjh-Ypq2-56" value="" style="edgeStyle=elbowEdgeStyle;elbow=vertical;verticalAlign=bottom;endArrow=open;endSize=8;strokeColor=#FF0000;endFill=1;rounded=0;exitX=0.5;exitY=1;exitDx=0;exitDy=0;" parent="1" source="SyflD4wRQNZvbjh-Ypq2-14" target="vtjTlCgghnRF5awZLfUh-1" edge="1">
          <mxGeometry x="264.5" y="168" as="geometry">
            <mxPoint x="409.88" y="323" as="targetPoint" />
            <mxPoint x="409.38" y="283" as="sourcePoint" />
          </mxGeometry>
        </mxCell>
        <mxCell id="SyflD4wRQNZvbjh-Ypq2-57" value="" style="edgeStyle=elbowEdgeStyle;elbow=vertical;verticalAlign=bottom;endArrow=open;endSize=8;strokeColor=#FF0000;endFill=1;rounded=0" parent="1" edge="1">
          <mxGeometry x="264.5" y="168" as="geometry">
            <mxPoint x="409.88" y="230" as="targetPoint" />
            <mxPoint x="409.38" y="190" as="sourcePoint" />
          </mxGeometry>
        </mxCell>
        <mxCell id="SyflD4wRQNZvbjh-Ypq2-58" value="" style="edgeStyle=elbowEdgeStyle;elbow=vertical;verticalAlign=bottom;endArrow=open;endSize=8;strokeColor=#FF0000;endFill=1;rounded=0;entryX=0.5;entryY=0;entryDx=0;entryDy=0;" parent="1" target="SyflD4wRQNZvbjh-Ypq2-54" edge="1">
          <mxGeometry x="264.5" y="168" as="geometry">
            <mxPoint x="409.88" y="140" as="targetPoint" />
            <mxPoint x="409.38" y="100" as="sourcePoint" />
          </mxGeometry>
        </mxCell>
        <mxCell id="SyflD4wRQNZvbjh-Ypq2-59" value="Produce" style="text;html=1;align=center;verticalAlign=middle;resizable=0;points=[];autosize=1;strokeColor=none;fillColor=none;" parent="1" vertex="1">
          <mxGeometry x="410" y="100" width="70" height="30" as="geometry" />
        </mxCell>
        <mxCell id="SyflD4wRQNZvbjh-Ypq2-60" value="Consume" style="text;html=1;align=center;verticalAlign=middle;resizable=0;points=[];autosize=1;strokeColor=none;fillColor=none;" parent="1" vertex="1">
          <mxGeometry x="410" y="190" width="70" height="30" as="geometry" />
        </mxCell>
        <mxCell id="SyflD4wRQNZvbjh-Ypq2-62" value="Plexaar Customer" style="rounded=1;whiteSpace=wrap;html=1;" parent="1" vertex="1">
          <mxGeometry x="970" y="1547" width="120" height="60" as="geometry" />
        </mxCell>
        <mxCell id="SyflD4wRQNZvbjh-Ypq2-63" value="Plexaar Invoice" style="rounded=1;whiteSpace=wrap;html=1;" parent="1" vertex="1">
          <mxGeometry x="970" y="2030" width="120" height="60" as="geometry" />
        </mxCell>
        <mxCell id="SyflD4wRQNZvbjh-Ypq2-64" value="Booking order Action" style="rounded=1;whiteSpace=wrap;html=1;" parent="1" vertex="1">
          <mxGeometry x="380" y="1710" width="120" height="60" as="geometry" />
        </mxCell>
        <mxCell id="SyflD4wRQNZvbjh-Ypq2-65" value="Sales_Order" style="rounded=1;whiteSpace=wrap;html=1;" parent="1" vertex="1">
          <mxGeometry x="380" y="1419" width="120" height="60" as="geometry" />
        </mxCell>
        <mxCell id="SyflD4wRQNZvbjh-Ypq2-66" value="Plexaar Booking Order Action" style="rounded=1;whiteSpace=wrap;html=1;" parent="1" vertex="1">
          <mxGeometry x="970" y="1910" width="120" height="60" as="geometry" />
        </mxCell>
        <mxCell id="SyflD4wRQNZvbjh-Ypq2-73" value="" style="edgeStyle=elbowEdgeStyle;elbow=vertical;verticalAlign=bottom;endArrow=open;endSize=8;strokeColor=#FF0000;endFill=1;rounded=0;entryX=0.5;entryY=0;entryDx=0;entryDy=0;exitX=0.5;exitY=1;exitDx=0;exitDy=0;" parent="1" source="SyflD4wRQNZvbjh-Ypq2-24" target="SyflD4wRQNZvbjh-Ypq2-66" edge="1">
          <mxGeometry x="264.5" y="168" as="geometry">
            <mxPoint x="875" y="1613" as="targetPoint" />
            <mxPoint x="945" y="1613" as="sourcePoint" />
            <Array as="points">
              <mxPoint x="1025" y="1890" />
            </Array>
          </mxGeometry>
        </mxCell>
        <mxCell id="SyflD4wRQNZvbjh-Ypq2-74" value="" style="edgeStyle=elbowEdgeStyle;elbow=vertical;verticalAlign=bottom;endArrow=open;endSize=8;strokeColor=#FF0000;endFill=1;rounded=0;entryX=0;entryY=0.5;entryDx=0;entryDy=0;exitX=1;exitY=0.5;exitDx=0;exitDy=0;" parent="1" source="SyflD4wRQNZvbjh-Ypq2-16" target="SyflD4wRQNZvbjh-Ypq2-25" edge="1">
          <mxGeometry x="264.5" y="168" as="geometry">
            <mxPoint x="900" y="1629" as="targetPoint" />
            <mxPoint x="970" y="1629" as="sourcePoint" />
            <Array as="points">
              <mxPoint x="930" y="1739" />
            </Array>
          </mxGeometry>
        </mxCell>
        <mxCell id="SyflD4wRQNZvbjh-Ypq2-75" value="" style="edgeStyle=elbowEdgeStyle;elbow=vertical;verticalAlign=bottom;endArrow=open;endSize=8;strokeColor=#FF0000;endFill=1;rounded=0;entryX=0;entryY=0.5;entryDx=0;entryDy=0;exitX=1;exitY=0.5;exitDx=0;exitDy=0;" parent="1" source="SyflD4wRQNZvbjh-Ypq2-64" target="SyflD4wRQNZvbjh-Ypq2-16" edge="1">
          <mxGeometry x="264.5" y="168" as="geometry">
            <mxPoint x="605" y="1629" as="targetPoint" />
            <mxPoint x="675" y="1629" as="sourcePoint" />
            <Array as="points">
              <mxPoint x="640" y="1739" />
            </Array>
          </mxGeometry>
        </mxCell>
        <mxCell id="SyflD4wRQNZvbjh-Ypq2-76" value="" style="edgeStyle=elbowEdgeStyle;elbow=vertical;verticalAlign=bottom;endArrow=open;endSize=8;strokeColor=#FF0000;endFill=1;rounded=0;entryX=0.5;entryY=0;entryDx=0;entryDy=0;exitX=0.5;exitY=1;exitDx=0;exitDy=0;" parent="1" source="SyflD4wRQNZvbjh-Ypq2-64" target="SyflD4wRQNZvbjh-Ypq2-22" edge="1">
          <mxGeometry x="264.5" y="168" as="geometry">
            <mxPoint x="190" y="1799" as="targetPoint" />
            <mxPoint x="260" y="1799" as="sourcePoint" />
            <Array as="points">
              <mxPoint x="420" y="1789" />
            </Array>
          </mxGeometry>
        </mxCell>
        <mxCell id="SyflD4wRQNZvbjh-Ypq2-77" value="" style="edgeStyle=elbowEdgeStyle;elbow=vertical;verticalAlign=bottom;endArrow=open;endSize=8;strokeColor=#FF0000;endFill=1;rounded=0;entryX=0.5;entryY=0;entryDx=0;entryDy=0;exitX=0.5;exitY=1;exitDx=0;exitDy=0;" parent="1" source="SyflD4wRQNZvbjh-Ypq2-20" target="SyflD4wRQNZvbjh-Ypq2-64" edge="1">
          <mxGeometry x="264.5" y="168" as="geometry">
            <mxPoint x="160" y="1799" as="targetPoint" />
            <mxPoint x="230" y="1799" as="sourcePoint" />
            <Array as="points">
              <mxPoint x="460" y="1689" />
            </Array>
          </mxGeometry>
        </mxCell>
        <mxCell id="SyflD4wRQNZvbjh-Ypq2-78" value="" style="edgeStyle=elbowEdgeStyle;elbow=vertical;verticalAlign=bottom;endArrow=open;endSize=8;strokeColor=#FF0000;endFill=1;rounded=0;entryX=0.5;entryY=0;entryDx=0;entryDy=0;exitX=0.5;exitY=1;exitDx=0;exitDy=0;" parent="1" source="SyflD4wRQNZvbjh-Ypq2-27" target="SyflD4wRQNZvbjh-Ypq2-20" edge="1">
          <mxGeometry x="264.5" y="168" as="geometry">
            <mxPoint x="180" y="1479" as="targetPoint" />
            <mxPoint x="250" y="1479" as="sourcePoint" />
            <Array as="points" />
          </mxGeometry>
        </mxCell>
        <mxCell id="SyflD4wRQNZvbjh-Ypq2-79" value="" style="edgeStyle=elbowEdgeStyle;elbow=vertical;verticalAlign=bottom;endArrow=open;endSize=8;strokeColor=#FF0000;endFill=1;rounded=0;entryX=0.5;entryY=0;entryDx=0;entryDy=0;exitX=0.5;exitY=1;exitDx=0;exitDy=0;" parent="1" source="SyflD4wRQNZvbjh-Ypq2-65" target="SyflD4wRQNZvbjh-Ypq2-27" edge="1">
          <mxGeometry x="264.5" y="168" as="geometry">
            <mxPoint x="190" y="1489" as="targetPoint" />
            <mxPoint x="260" y="1489" as="sourcePoint" />
            <Array as="points" />
          </mxGeometry>
        </mxCell>
        <mxCell id="SyflD4wRQNZvbjh-Ypq2-85" value="Produce" style="text;html=1;align=center;verticalAlign=middle;resizable=0;points=[];autosize=1;strokeColor=none;fillColor=none;" parent="1" vertex="1">
          <mxGeometry x="445" y="1479" width="70" height="30" as="geometry" />
        </mxCell>
        <mxCell id="SyflD4wRQNZvbjh-Ypq2-86" value="Consume" style="text;html=1;align=center;verticalAlign=middle;resizable=0;points=[];autosize=1;strokeColor=none;fillColor=none;" parent="1" vertex="1">
          <mxGeometry x="450" y="1579" width="70" height="30" as="geometry" />
        </mxCell>
        <mxCell id="SyflD4wRQNZvbjh-Ypq2-87" value="Produce" style="text;html=1;align=center;verticalAlign=middle;resizable=0;points=[];autosize=1;strokeColor=none;fillColor=none;" parent="1" vertex="1">
          <mxGeometry x="440" y="1677" width="70" height="30" as="geometry" />
        </mxCell>
        <mxCell id="SyflD4wRQNZvbjh-Ypq2-88" value="Consume" style="text;html=1;align=center;verticalAlign=middle;resizable=0;points=[];autosize=1;strokeColor=none;fillColor=none;" parent="1" vertex="1">
          <mxGeometry x="445" y="1770" width="70" height="30" as="geometry" />
        </mxCell>
        <mxCell id="SyflD4wRQNZvbjh-Ypq2-89" value="Consume" style="text;html=1;align=center;verticalAlign=middle;resizable=0;points=[];autosize=1;strokeColor=none;fillColor=none;" parent="1" vertex="1">
          <mxGeometry x="589" y="1707" width="70" height="30" as="geometry" />
        </mxCell>
        <mxCell id="SyflD4wRQNZvbjh-Ypq2-90" value="Produce" style="text;html=1;align=center;verticalAlign=middle;resizable=0;points=[];autosize=1;strokeColor=none;fillColor=none;" parent="1" vertex="1">
          <mxGeometry x="890" y="1707" width="70" height="30" as="geometry" />
        </mxCell>
        <mxCell id="SyflD4wRQNZvbjh-Ypq2-92" value="Produce" style="text;html=1;align=center;verticalAlign=middle;resizable=0;points=[];autosize=1;strokeColor=none;fillColor=none;" parent="1" vertex="1">
          <mxGeometry x="1020" y="1870" width="70" height="30" as="geometry" />
        </mxCell>
        <mxCell id="SyflD4wRQNZvbjh-Ypq2-98" value="" style="edgeStyle=elbowEdgeStyle;elbow=vertical;verticalAlign=bottom;endArrow=open;endSize=8;strokeColor=#FF0000;endFill=1;rounded=0;entryX=0.5;entryY=1;entryDx=0;entryDy=0;exitX=0.5;exitY=0;exitDx=0;exitDy=0;" parent="1" source="SyflD4wRQNZvbjh-Ypq2-25" target="SyflD4wRQNZvbjh-Ypq2-62" edge="1">
          <mxGeometry x="264.5" y="168" as="geometry">
            <mxPoint x="900" y="1644" as="targetPoint" />
            <mxPoint x="970" y="1644" as="sourcePoint" />
            <Array as="points">
              <mxPoint x="1030" y="1634" />
            </Array>
          </mxGeometry>
        </mxCell>
        <mxCell id="SyflD4wRQNZvbjh-Ypq2-99" value="" style="edgeStyle=elbowEdgeStyle;elbow=vertical;verticalAlign=bottom;endArrow=open;endSize=8;strokeColor=#FF0000;endFill=1;rounded=0;entryX=0.5;entryY=0;entryDx=0;entryDy=0;exitX=0.5;exitY=1;exitDx=0;exitDy=0;" parent="1" source="SyflD4wRQNZvbjh-Ypq2-66" target="SyflD4wRQNZvbjh-Ypq2-63" edge="1">
          <mxGeometry x="264.5" y="168" as="geometry">
            <mxPoint x="955" y="1733" as="targetPoint" />
            <mxPoint x="1025" y="1733" as="sourcePoint" />
            <Array as="points" />
          </mxGeometry>
        </mxCell>
        <mxCell id="SyflD4wRQNZvbjh-Ypq2-100" value="Consume" style="text;html=1;align=center;verticalAlign=middle;resizable=0;points=[];autosize=1;strokeColor=none;fillColor=none;" parent="1" vertex="1">
          <mxGeometry x="1030" y="1980" width="70" height="30" as="geometry" />
        </mxCell>
        <mxCell id="SyflD4wRQNZvbjh-Ypq2-106" value="Pending Purchase Order" style="rounded=1;whiteSpace=wrap;html=1;" parent="1" vertex="1">
          <mxGeometry x="-270" y="358" width="180" height="60" as="geometry" />
        </mxCell>
        <mxCell id="vtjTlCgghnRF5awZLfUh-1" value="Captured Slot&amp;nbsp;&lt;br&gt;Status" style="rhombus;whiteSpace=wrap;html=1;" parent="1" vertex="1">
          <mxGeometry x="360" y="342" width="100" height="92" as="geometry" />
        </mxCell>
        <mxCell id="Ct7cLnX1y5oLwAJK4TMH-7" value="" style="edgeStyle=elbowEdgeStyle;elbow=vertical;verticalAlign=bottom;endArrow=open;endSize=8;strokeColor=#FF0000;endFill=1;rounded=0;exitX=0;exitY=0.5;exitDx=0;exitDy=0;entryX=1;entryY=0.5;entryDx=0;entryDy=0;" parent="1" source="vtjTlCgghnRF5awZLfUh-1" target="yE5K2r65PZEqYhzOlbyw-1" edge="1">
          <mxGeometry x="264.5" y="168" as="geometry">
            <mxPoint x="320" y="390" as="targetPoint" />
            <mxPoint x="250" y="348" as="sourcePoint" />
          </mxGeometry>
        </mxCell>
        <mxCell id="Ct7cLnX1y5oLwAJK4TMH-9" value="" style="edgeStyle=elbowEdgeStyle;elbow=vertical;verticalAlign=bottom;endArrow=open;endSize=8;strokeColor=#FF0000;endFill=1;rounded=0" parent="1" edge="1">
          <mxGeometry x="264.5" y="168" as="geometry">
            <mxPoint x="439.71" y="935" as="targetPoint" />
            <mxPoint x="439.09" y="870" as="sourcePoint" />
          </mxGeometry>
        </mxCell>
        <mxCell id="Ct7cLnX1y5oLwAJK4TMH-10" value="" style="edgeStyle=elbowEdgeStyle;elbow=vertical;verticalAlign=bottom;endArrow=open;endSize=8;strokeColor=#FF0000;endFill=1;rounded=0" parent="1" source="SyflD4wRQNZvbjh-Ypq2-17" edge="1">
          <mxGeometry x="264.5" y="168" as="geometry">
            <mxPoint x="440" y="810" as="targetPoint" />
            <mxPoint x="439.09" y="740" as="sourcePoint" />
          </mxGeometry>
        </mxCell>
        <mxCell id="Ct7cLnX1y5oLwAJK4TMH-11" value="" style="edgeStyle=elbowEdgeStyle;elbow=vertical;verticalAlign=bottom;endArrow=open;endSize=8;strokeColor=#FF0000;endFill=1;rounded=0;exitX=0;exitY=0.5;exitDx=0;exitDy=0;entryX=1;entryY=0.5;entryDx=0;entryDy=0;" parent="1" source="Ct7cLnX1y5oLwAJK4TMH-21" target="SyflD4wRQNZvbjh-Ypq2-106" edge="1">
          <mxGeometry x="264.5" y="168" as="geometry">
            <mxPoint x="110.62" y="493" as="targetPoint" />
            <mxPoint x="110" y="428" as="sourcePoint" />
          </mxGeometry>
        </mxCell>
        <mxCell id="Ct7cLnX1y5oLwAJK4TMH-12" value="" style="edgeStyle=elbowEdgeStyle;elbow=vertical;verticalAlign=bottom;endArrow=open;endSize=8;strokeColor=#FF0000;endFill=1;rounded=0;entryX=0.5;entryY=0;entryDx=0;entryDy=0;" parent="1" target="HpKKASSlwewn0gsuJPWu-1" edge="1">
          <mxGeometry x="264.5" y="168" as="geometry">
            <mxPoint x="409.71" y="499" as="targetPoint" />
            <mxPoint x="409.09" y="434" as="sourcePoint" />
            <Array as="points">
              <mxPoint x="399.09" y="444" />
            </Array>
          </mxGeometry>
        </mxCell>
        <mxCell id="Ct7cLnX1y5oLwAJK4TMH-16" value="Start" style="ellipse;whiteSpace=wrap;html=1;" parent="1" vertex="1">
          <mxGeometry x="350" y="-70" width="120" height="80" as="geometry" />
        </mxCell>
        <mxCell id="Ct7cLnX1y5oLwAJK4TMH-19" value="Purchase Order" style="shape=process;whiteSpace=wrap;html=1;backgroundOutline=1;" parent="1" vertex="1">
          <mxGeometry x="380" y="1180" width="120" height="60" as="geometry" />
        </mxCell>
        <mxCell id="Ct7cLnX1y5oLwAJK4TMH-21" value="Purchase Order" style="shape=process;whiteSpace=wrap;html=1;backgroundOutline=1;" parent="1" vertex="1">
          <mxGeometry x="-20" y="358" width="140" height="60" as="geometry" />
        </mxCell>
        <mxCell id="Ct7cLnX1y5oLwAJK4TMH-22" value="No" style="text;html=1;align=center;verticalAlign=middle;resizable=0;points=[];autosize=1;strokeColor=none;fillColor=none;" parent="1" vertex="1">
          <mxGeometry x="330" y="358" width="40" height="30" as="geometry" />
        </mxCell>
        <mxCell id="Ct7cLnX1y5oLwAJK4TMH-23" value="Yes" style="text;html=1;align=center;verticalAlign=middle;resizable=0;points=[];autosize=1;strokeColor=none;fillColor=none;" parent="1" vertex="1">
          <mxGeometry x="360" y="413" width="40" height="30" as="geometry" />
        </mxCell>
        <mxCell id="Ct7cLnX1y5oLwAJK4TMH-24" value="Purchase Order" style="shape=process;whiteSpace=wrap;html=1;backgroundOutline=1;" parent="1" vertex="1">
          <mxGeometry x="380" y="940" width="120" height="60" as="geometry" />
        </mxCell>
        <mxCell id="Ct7cLnX1y5oLwAJK4TMH-34" value="Payment Captured" style="rounded=1;whiteSpace=wrap;html=1;" parent="1" vertex="1">
          <mxGeometry x="380" y="1070" width="120" height="60" as="geometry" />
        </mxCell>
        <mxCell id="Ct7cLnX1y5oLwAJK4TMH-35" value="Final Purchase Order" style="rounded=1;whiteSpace=wrap;html=1;" parent="1" vertex="1">
          <mxGeometry x="380" y="1310" width="120" height="60" as="geometry" />
        </mxCell>
        <mxCell id="Ct7cLnX1y5oLwAJK4TMH-39" value="" style="edgeStyle=elbowEdgeStyle;elbow=horizontal;verticalAlign=bottom;endArrow=open;endSize=8;strokeColor=#FF0000;endFill=1;rounded=0;entryX=0.5;entryY=0;entryDx=0;entryDy=0;" parent="1" target="SyflD4wRQNZvbjh-Ypq2-65" edge="1">
          <mxGeometry x="264.5" y="168" as="geometry">
            <mxPoint x="-19.089999999999975" y="1300" as="targetPoint" />
            <mxPoint x="440" y="1370" as="sourcePoint" />
          </mxGeometry>
        </mxCell>
        <mxCell id="Ct7cLnX1y5oLwAJK4TMH-40" value="" style="edgeStyle=elbowEdgeStyle;elbow=vertical;verticalAlign=bottom;endArrow=open;endSize=8;strokeColor=#FF0000;endFill=1;rounded=0;entryX=0.5;entryY=0;entryDx=0;entryDy=0;exitX=0.5;exitY=1;exitDx=0;exitDy=0;" parent="1" source="Ct7cLnX1y5oLwAJK4TMH-16" target="SyflD4wRQNZvbjh-Ypq2-5" edge="1">
          <mxGeometry x="264.5" y="168" as="geometry">
            <mxPoint x="630.9100000000001" y="140" as="targetPoint" />
            <mxPoint x="620" y="20" as="sourcePoint" />
          </mxGeometry>
        </mxCell>
        <mxCell id="Ct7cLnX1y5oLwAJK4TMH-42" value="" style="edgeStyle=elbowEdgeStyle;elbow=vertical;verticalAlign=bottom;endArrow=open;endSize=8;strokeColor=#FF0000;endFill=1;rounded=0;entryX=0.5;entryY=0;entryDx=0;entryDy=0;" parent="1" target="Ct7cLnX1y5oLwAJK4TMH-19" edge="1">
          <mxGeometry x="264.5" y="168" as="geometry">
            <mxPoint x="440" y="1200" as="targetPoint" />
            <mxPoint x="439.09" y="1130" as="sourcePoint" />
          </mxGeometry>
        </mxCell>
        <mxCell id="Ct7cLnX1y5oLwAJK4TMH-45" value="Consume" style="text;html=1;align=center;verticalAlign=middle;resizable=0;points=[];autosize=1;strokeColor=none;fillColor=none;" parent="1" vertex="1">
          <mxGeometry x="1030" y="1639" width="70" height="30" as="geometry" />
        </mxCell>
        <mxCell id="Ct7cLnX1y5oLwAJK4TMH-46" value="Consume" style="text;html=1;align=center;verticalAlign=middle;resizable=0;points=[];autosize=1;strokeColor=none;fillColor=none;" parent="1" vertex="1">
          <mxGeometry x="1030" y="1770" width="70" height="30" as="geometry" />
        </mxCell>
        <mxCell id="Ct7cLnX1y5oLwAJK4TMH-49" value="Produce" style="text;html=1;align=center;verticalAlign=middle;resizable=0;points=[];autosize=1;strokeColor=none;fillColor=none;" parent="1" vertex="1">
          <mxGeometry x="435" y="750" width="70" height="30" as="geometry" />
        </mxCell>
        <mxCell id="Ct7cLnX1y5oLwAJK4TMH-50" value="Produce" style="text;html=1;align=center;verticalAlign=middle;resizable=0;points=[];autosize=1;strokeColor=none;fillColor=none;" parent="1" vertex="1">
          <mxGeometry x="-90" y="328" width="70" height="30" as="geometry" />
        </mxCell>
        <mxCell id="Ct7cLnX1y5oLwAJK4TMH-53" value="Consume" style="text;html=1;align=center;verticalAlign=middle;resizable=0;points=[];autosize=1;strokeColor=none;fillColor=none;" parent="1" vertex="1">
          <mxGeometry x="110" y="330" width="70" height="30" as="geometry" />
        </mxCell>
        <mxCell id="Ct7cLnX1y5oLwAJK4TMH-54" value="Consume" style="text;html=1;align=center;verticalAlign=middle;resizable=0;points=[];autosize=1;strokeColor=none;fillColor=none;" parent="1" vertex="1">
          <mxGeometry x="445" y="1140" width="70" height="30" as="geometry" />
        </mxCell>
        <mxCell id="Ct7cLnX1y5oLwAJK4TMH-55" value="Consume" style="text;html=1;align=center;verticalAlign=middle;resizable=0;points=[];autosize=1;strokeColor=none;fillColor=none;" parent="1" vertex="1">
          <mxGeometry x="450" y="1370" width="70" height="30" as="geometry" />
        </mxCell>
        <mxCell id="Ct7cLnX1y5oLwAJK4TMH-57" value="Consume" style="text;html=1;align=center;verticalAlign=middle;resizable=0;points=[];autosize=1;strokeColor=none;fillColor=none;" parent="1" vertex="1">
          <mxGeometry x="440" y="890" width="70" height="30" as="geometry" />
        </mxCell>
        <mxCell id="HpKKASSlwewn0gsuJPWu-1" value="if payment = 0" style="rhombus;whiteSpace=wrap;html=1;" parent="1" vertex="1">
          <mxGeometry x="355" y="500" width="110" height="110" as="geometry" />
        </mxCell>
        <mxCell id="HpKKASSlwewn0gsuJPWu-5" value="" style="edgeStyle=elbowEdgeStyle;elbow=vertical;verticalAlign=bottom;endArrow=open;endSize=8;strokeColor=#FF0000;endFill=1;rounded=0;exitX=1;exitY=0.5;exitDx=0;exitDy=0;entryX=0;entryY=0.5;entryDx=0;entryDy=0;" parent="1" source="HpKKASSlwewn0gsuJPWu-18" target="HpKKASSlwewn0gsuJPWu-20" edge="1">
          <mxGeometry x="264.5" y="168" as="geometry">
            <mxPoint x="490" y="400.06" as="targetPoint" />
            <mxPoint x="560" y="400.06" as="sourcePoint" />
          </mxGeometry>
        </mxCell>
        <mxCell id="HpKKASSlwewn0gsuJPWu-6" value="" style="edgeStyle=elbowEdgeStyle;elbow=vertical;verticalAlign=bottom;endArrow=open;endSize=8;strokeColor=#FF0000;endFill=1;rounded=0;exitX=1;exitY=0.5;exitDx=0;exitDy=0;" parent="1" source="HpKKASSlwewn0gsuJPWu-1" edge="1">
          <mxGeometry x="264.5" y="168" as="geometry">
            <mxPoint x="530" y="555" as="targetPoint" />
            <mxPoint x="600" y="612.41" as="sourcePoint" />
          </mxGeometry>
        </mxCell>
        <mxCell id="HpKKASSlwewn0gsuJPWu-14" value="No" style="text;html=1;align=center;verticalAlign=middle;resizable=0;points=[];autosize=1;strokeColor=none;fillColor=none;" parent="1" vertex="1">
          <mxGeometry x="330" y="525" width="40" height="30" as="geometry" />
        </mxCell>
        <mxCell id="HpKKASSlwewn0gsuJPWu-15" value="Yes" style="text;html=1;align=center;verticalAlign=middle;resizable=0;points=[];autosize=1;strokeColor=none;fillColor=none;" parent="1" vertex="1">
          <mxGeometry x="450" y="528" width="40" height="30" as="geometry" />
        </mxCell>
        <mxCell id="HpKKASSlwewn0gsuJPWu-18" value="Update &lt;br&gt;Slots_Captured" style="rounded=1;whiteSpace=wrap;html=1;" parent="1" vertex="1">
          <mxGeometry x="530" y="528" width="120" height="60" as="geometry" />
        </mxCell>
        <mxCell id="HpKKASSlwewn0gsuJPWu-20" value="&amp;nbsp;Purchase Order" style="shape=process;whiteSpace=wrap;html=1;backgroundOutline=1;" parent="1" vertex="1">
          <mxGeometry x="720" y="528" width="120" height="60" as="geometry" />
        </mxCell>
        <mxCell id="HpKKASSlwewn0gsuJPWu-27" value="" style="edgeStyle=elbowEdgeStyle;elbow=vertical;verticalAlign=bottom;endArrow=open;endSize=8;strokeColor=#FF0000;endFill=1;rounded=0;entryX=1;entryY=0.5;entryDx=0;entryDy=0;exitX=0.5;exitY=1;exitDx=0;exitDy=0;" parent="1" source="HpKKASSlwewn0gsuJPWu-20" target="Ct7cLnX1y5oLwAJK4TMH-35" edge="1">
          <mxGeometry x="264.5" y="168" as="geometry">
            <mxPoint x="750" y="620" as="targetPoint" />
            <mxPoint x="760" y="600" as="sourcePoint" />
            <Array as="points">
              <mxPoint x="690" y="1340" />
            </Array>
          </mxGeometry>
        </mxCell>
        <mxCell id="HpKKASSlwewn0gsuJPWu-28" value="Produce" style="text;html=1;align=center;verticalAlign=middle;resizable=0;points=[];autosize=1;strokeColor=none;fillColor=none;" parent="1" vertex="1">
          <mxGeometry x="460" y="508" width="70" height="30" as="geometry" />
        </mxCell>
        <mxCell id="HpKKASSlwewn0gsuJPWu-30" value="consume" style="text;html=1;align=center;verticalAlign=middle;resizable=0;points=[];autosize=1;strokeColor=none;fillColor=none;" parent="1" vertex="1">
          <mxGeometry x="650" y="508" width="70" height="30" as="geometry" />
        </mxCell>
        <mxCell id="HpKKASSlwewn0gsuJPWu-31" value="produce" style="text;html=1;align=center;verticalAlign=middle;resizable=0;points=[];autosize=1;strokeColor=none;fillColor=none;" parent="1" vertex="1">
          <mxGeometry x="770" y="710" width="70" height="30" as="geometry" />
        </mxCell>
        <mxCell id="HpKKASSlwewn0gsuJPWu-36" value="" style="edgeStyle=elbowEdgeStyle;elbow=vertical;verticalAlign=bottom;endArrow=open;endSize=8;strokeColor=#FF0000;endFill=1;rounded=0;entryX=0;entryY=0.5;entryDx=0;entryDy=0;" parent="1" target="SyflD4wRQNZvbjh-Ypq2-17" edge="1">
          <mxGeometry x="264.5" y="168" as="geometry">
            <mxPoint x="370" y="710" as="targetPoint" />
            <mxPoint x="239.33" y="588" as="sourcePoint" />
            <Array as="points">
              <mxPoint x="300" y="710" />
            </Array>
          </mxGeometry>
        </mxCell>
        <mxCell id="HpKKASSlwewn0gsuJPWu-37" value="" style="edgeStyle=elbowEdgeStyle;elbow=vertical;verticalAlign=bottom;endArrow=open;endSize=8;strokeColor=#FF0000;endFill=1;rounded=0;exitX=0;exitY=0.5;exitDx=0;exitDy=0;entryX=1;entryY=0.5;entryDx=0;entryDy=0;" parent="1" source="HpKKASSlwewn0gsuJPWu-1" target="HpKKASSlwewn0gsuJPWu-42" edge="1">
          <mxGeometry x="264.5" y="168" as="geometry">
            <mxPoint x="239.33" y="748" as="targetPoint" />
            <mxPoint x="239.33" y="678" as="sourcePoint" />
          </mxGeometry>
        </mxCell>
        <mxCell id="HpKKASSlwewn0gsuJPWu-38" value="" style="edgeStyle=elbowEdgeStyle;elbow=vertical;verticalAlign=bottom;endArrow=open;endSize=8;strokeColor=#FF0000;endFill=1;rounded=0;exitX=1;exitY=0.5;exitDx=0;exitDy=0;entryX=1;entryY=0.5;entryDx=0;entryDy=0;" parent="1" source="SyflD4wRQNZvbjh-Ypq2-17" target="Ct7cLnX1y5oLwAJK4TMH-34" edge="1">
          <mxGeometry x="264.5" y="168" as="geometry">
            <mxPoint x="589.3299999999999" y="870" as="targetPoint" />
            <mxPoint x="589.3299999999999" y="800" as="sourcePoint" />
            <Array as="points">
              <mxPoint x="590" y="920" />
            </Array>
          </mxGeometry>
        </mxCell>
        <mxCell id="HpKKASSlwewn0gsuJPWu-39" value="" style="edgeStyle=elbowEdgeStyle;elbow=vertical;verticalAlign=bottom;endArrow=open;endSize=8;strokeColor=#FF0000;endFill=1;rounded=0;exitX=0;exitY=0.5;exitDx=0;exitDy=0;entryX=0;entryY=0.5;entryDx=0;entryDy=0;" parent="1" source="Ct7cLnX1y5oLwAJK4TMH-24" target="Ct7cLnX1y5oLwAJK4TMH-35" edge="1">
          <mxGeometry x="264.5" y="168" as="geometry">
            <mxPoint x="350" y="1040" as="targetPoint" />
            <mxPoint x="350" y="970" as="sourcePoint" />
            <Array as="points">
              <mxPoint x="310" y="1155" />
            </Array>
          </mxGeometry>
        </mxCell>
        <mxCell id="HpKKASSlwewn0gsuJPWu-40" value="Produce" style="text;html=1;align=center;verticalAlign=middle;resizable=0;points=[];autosize=1;strokeColor=none;fillColor=none;" parent="1" vertex="1">
          <mxGeometry x="250" y="1040" width="70" height="30" as="geometry" />
        </mxCell>
        <mxCell id="HpKKASSlwewn0gsuJPWu-41" value="Produce" style="text;html=1;align=center;verticalAlign=middle;resizable=0;points=[];autosize=1;strokeColor=none;fillColor=none;" parent="1" vertex="1">
          <mxGeometry x="515" y="678" width="70" height="30" as="geometry" />
        </mxCell>
        <mxCell id="HpKKASSlwewn0gsuJPWu-42" value="Update &lt;br&gt;Slots_Captured_payment" style="rounded=1;whiteSpace=wrap;html=1;" parent="1" vertex="1">
          <mxGeometry x="150" y="525" width="150" height="60" as="geometry" />
        </mxCell>
        <mxCell id="HpKKASSlwewn0gsuJPWu-44" value="Consume" style="text;html=1;align=center;verticalAlign=middle;resizable=0;points=[];autosize=1;strokeColor=none;fillColor=none;" parent="1" vertex="1">
          <mxGeometry x="275" y="680" width="70" height="30" as="geometry" />
        </mxCell>
        <mxCell id="HpKKASSlwewn0gsuJPWu-45" value="Produce" style="text;html=1;align=center;verticalAlign=middle;resizable=0;points=[];autosize=1;strokeColor=none;fillColor=none;" parent="1" vertex="1">
          <mxGeometry x="295" y="508" width="70" height="30" as="geometry" />
        </mxCell>
        <mxCell id="yE5K2r65PZEqYhzOlbyw-1" value="Update &lt;br&gt;Slots_UnCaptured" style="rounded=1;whiteSpace=wrap;html=1;" vertex="1" parent="1">
          <mxGeometry x="180" y="358" width="120" height="60" as="geometry" />
        </mxCell>
        <mxCell id="yE5K2r65PZEqYhzOlbyw-6" value="Produce" style="text;html=1;align=center;verticalAlign=middle;resizable=0;points=[];autosize=1;strokeColor=none;fillColor=none;" vertex="1" parent="1">
          <mxGeometry x="300" y="328" width="70" height="30" as="geometry" />
        </mxCell>
        <mxCell id="yE5K2r65PZEqYhzOlbyw-8" value="" style="edgeStyle=elbowEdgeStyle;elbow=vertical;verticalAlign=bottom;endArrow=open;endSize=8;strokeColor=#FF0000;endFill=1;rounded=0;exitX=0;exitY=0.5;exitDx=0;exitDy=0;entryX=1;entryY=0.5;entryDx=0;entryDy=0;" edge="1" parent="1" source="yE5K2r65PZEqYhzOlbyw-1" target="Ct7cLnX1y5oLwAJK4TMH-21">
          <mxGeometry x="264.5" y="168" as="geometry">
            <mxPoint x="40" y="500" as="targetPoint" />
            <mxPoint x="100" y="500" as="sourcePoint" />
          </mxGeometry>
        </mxCell>
      </root>
    </mxGraphModel>
  </diagram>
</mxfile>
